<?xml version="1.0" encoding="UTF-8" standalone="no"?>
<svg viewBox="0 0 744.09448819 1052.3622047" xmlns="http://www.w3.org/2000/svg">
<path d="m289.51873,102.87946 20.22251,35.06943c38.86721,67.98075 50.53856,118.33525 49.91634,215.28021-.50926,79.32944-3.85209,99.69326-27.64597,170.48349-24.11466,71.74437-26.64449,87.62815-23.29429,147.44521l3.58374,67.06708-16.3828-36.86129c-18.70432-41.59855-20.53068-86.62948-9.72729-243.43817l6.9115-100.08866-25.34215-51.45222c-25.93667-52.65366-91.05026-126.66566-80.3781-91.3853 7.68386,25.40161-14.06979,81.8125-66.29913,172.27536-64.89825,112.40574-78.70501,156.33441-74.23456,232.17497 5.40698,91.72617 51.52963,175.34282 131.83033,238.83051 26.24631,20.75094 48.03461,31.48577 64.50727,31.48569h24.83018l-34.55747-37.62924c-47.77723-51.83223-75.34768-115.79321-80.3781-186.09835-2.99035-41.79411-1.46782-55.6818 5.3756-51.45226 5.15854,3.18818 9.21541,12.45355 9.21533,20.4785 0,23.25042 45.89387,108.61045 79.35418,147.7012 16.86797,19.70637 52.54168,51.86884 79.09819,71.41876 46.07466,33.9182 50.7014,35.58147 105.20828,35.58139 31.41672,0 55.72978-2.76452 54.01204-6.14355-49.1008-96.58331-51.48737-104.50161-51.19624-169.97153 .26908-60.51855 3.40729-71.79688 38.65316-147.44522 43.79876-94.00531 54.75492-135.71395 55.03596-205.55292 .40777-101.26608-47.76151-177.39703-140.53369-222.1917-28.44291-13.73353-62.0754-27.51155-74.74651-30.46176l-23.03831-5.11963zm341.73493,266.73244-6.39953,36.86129c-9.05346,52.44126-20.32122,77.36482-67.83503,151.54088-23.08696,36.04216-46.6972,77.64603-52.73213,92.40926-17.0839,41.79268-7.59408,127.25182 20.4785,184.05049l23.29429,47.35653 10.23926-35.32541c7.8766-27.01278 25.4705-49.91716 75.25847-97.27286 72.20555-68.67792 82.86027-91.11744 82.93792-175.60315 .05693-61.96941-16.4367-110.24198-55.29194-163.06004l-29.94981-40.95699z" fill="#f00"/>
</svg>
